<svg xmlns="http://www.w3.org/2000/svg" style="display:none" fill="none" stroke="currentColor" stroke-width="2" stroke-linecap="round" stroke-linejoin="round">
  <symbol id="icon-dashboard" viewBox="0 0 24 24">
    <path d="M4 13a8 8 0 0 1 16 0"/>
    <path d="M12 13l4-5"/>
    <path d="M6 17h12"/>
  </symbol>
  <symbol id="icon-map" viewBox="0 0 24 24">
    <path d="M9 18l-6 3V6l6-3 6 3 6-3v15l-6 3-6-3z"/>
    <path d="M9 3v15"/>
    <path d="M15 6v15"/>
  </symbol>
  <symbol id="icon-devices" viewBox="0 0 24 24">
    <rect x="3" y="4" width="18" height="12" rx="2"/>
    <path d="M8 20h8"/>
    <path d="M12 16v4"/>
  </symbol>
  <symbol id="icon-traffic" viewBox="0 0 24 24">
    <path d="M4 17l5-5 4 4 7-9"/>
    <path d="M15 7h5v5"/>
  </symbol>
  <symbol id="icon-history" viewBox="0 0 24 24">
    <path d="M3 12a9 9 0 1 0 3-6.7"/>
    <path d="M3 4v6h6"/>
    <path d="M12 7v6l4 2"/>
  </symbol>
  <symbol id="icon-shield" viewBox="0 0 24 24">
    <path d="M12 3l7 3v5c0 5-3 8.5-7 10-4-1.5-7-5-7-10V6l7-3z"/>
  </symbol>
  <symbol id="icon-applications" viewBox="0 0 24 24">
    <rect x="4" y="4" width="7" height="7" rx="1.5"/>
    <rect x="13" y="4" width="7" height="7" rx="1.5"/>
    <rect x="4" y="13" width="7" height="7" rx="1.5"/>
    <rect x="13" y="13" width="7" height="7" rx="1.5"/>
  </symbol>
  <symbol id="icon-blocked" viewBox="0 0 24 24">
    <circle cx="12" cy="12" r="8"/>
    <path d="M7 7l10 10"/>
  </symbol>
  <symbol id="icon-filter" viewBox="0 0 24 24">
    <path d="M4 5h16"/>
    <path d="M7 12h10"/>
    <path d="M10 19h4"/>
  </symbol>
  <symbol id="icon-ids" viewBox="0 0 24 24">
    <path d="M12 3l7 3v5c0 5-3 8.5-7 10-4-1.5-7-5-7-10V6l7-3z"/>
    <path d="M12 8v5"/>
    <path d="M12 17h.01"/>
  </symbol>
  <symbol id="icon-adguard" viewBox="0 0 24 24">
    <path d="M12 3l7 3v5c0 5-3 8.5-7 10-4-1.5-7-5-7-10V6l7-3z"/>
    <path d="M8.5 12l2.3 2.3 4.8-5.1"/>
  </symbol>
  <symbol id="icon-unifi" viewBox="0 0 24 24">
    <path d="M5 17a7 7 0 0 1 14 0"/>
    <path d="M8 17a4 4 0 0 1 8 0"/>
    <path d="M12 17h.01"/>
    <path d="M4 21h16"/>
  </symbol>
  <symbol id="icon-telegram" viewBox="0 0 24 24">
    <path d="M21 4L3 11l7 3 3 7 8-17z"/>
    <path d="M10 14l4-4"/>
  </symbol>
  <symbol id="icon-telemetry" viewBox="0 0 24 24">
    <path d="M3 12h4l2-6 4 12 2-6h6"/>
    <path d="M4 20h16"/>
  </symbol>
  <symbol id="icon-speed" viewBox="0 0 24 24">
    <path d="M4 14a8 8 0 0 1 16 0"/>
    <path d="M12 14l5-5"/>
    <path d="M7 18h10"/>
  </symbol>
  <symbol id="icon-health" viewBox="0 0 24 24">
    <path d="M3 12h4l2-5 4 10 2-5h6"/>
  </symbol>
  <symbol id="icon-vault" viewBox="0 0 24 24">
    <rect x="4" y="5" width="16" height="14" rx="2"/>
    <circle cx="12" cy="12" r="3"/>
    <path d="M12 9V7"/>
    <path d="M15 12h2"/>
  </symbol>
  <symbol id="icon-exports" viewBox="0 0 24 24">
    <path d="M12 3v12"/>
    <path d="M8 11l4 4 4-4"/>
    <path d="M5 19h14"/>
  </symbol>
  <symbol id="icon-logs" viewBox="0 0 24 24">
    <path d="M7 3h7l4 4v14H7z"/>
    <path d="M14 3v5h5"/>
    <path d="M10 13h6"/>
    <path d="M10 17h6"/>
  </symbol>
  <symbol id="icon-logout" viewBox="0 0 24 24">
    <path d="M10 17l5-5-5-5"/>
    <path d="M15 12H3"/>
    <path d="M14 4h5a2 2 0 0 1 2 2v12a2 2 0 0 1-2 2h-5"/>
  </symbol>
  <symbol id="icon-chevron-down" viewBox="0 0 24 24">
    <path d="M6 9l6 6 6-6"/>
  </symbol>
  <symbol id="icon-services" viewBox="0 0 24 24">
    <rect x="4" y="5" width="16" height="5" rx="1.5"/>
    <rect x="4" y="14" width="16" height="5" rx="1.5"/>
    <path d="M7 7.5h.01"/>
    <path d="M7 16.5h.01"/>
  </symbol>
  <symbol id="icon-monitor" viewBox="0 0 24 24">
    <path d="M3 12h4l2-6 4 12 2-6h6"/>
  </symbol>
  <symbol id="icon-monitor-web" viewBox="0 0 24 24">
    <circle cx="12" cy="12" r="9"/>
    <path d="M3 12h18"/>
    <path d="M12 3a14 14 0 0 1 0 18"/>
    <path d="M12 3a14 14 0 0 0 0 18"/>
  </symbol>
  <symbol id="icon-monitor-dns" viewBox="0 0 24 24">
    <rect x="5" y="4" width="14" height="5" rx="1.5"/>
    <rect x="5" y="15" width="14" height="5" rx="1.5"/>
    <path d="M8 6.5h.01"/>
    <path d="M8 17.5h.01"/>
    <path d="M12 9v6"/>
  </symbol>
  <symbol id="icon-settings" viewBox="0 0 24 24">
    <circle cx="12" cy="12" r="3"/>
    <path d="M19.4 15a1.7 1.7 0 0 0 .3 1.9l.1.1-2 3-.2-.1a1.7 1.7 0 0 0-2 .1 1.7 1.7 0 0 0-.8 1.7V22h-3.6v-.3a1.7 1.7 0 0 0-.8-1.7 1.7 1.7 0 0 0-2-.1l-.2.1-2-3 .1-.1A1.7 1.7 0 0 0 4.6 15a1.7 1.7 0 0 0-1.4-1H3v-4h.2a1.7 1.7 0 0 0 1.4-1 1.7 1.7 0 0 0-.3-1.9L4.2 7l2-3 .2.1a1.7 1.7 0 0 0 2-.1 1.7 1.7 0 0 0 .8-1.7V2h3.6v.3a1.7 1.7 0 0 0 .8 1.7 1.7 1.7 0 0 0 2 .1l.2-.1 2 3-.1.1a1.7 1.7 0 0 0-.3 1.9 1.7 1.7 0 0 0 1.4 1h.2v4h-.2a1.7 1.7 0 0 0-1.4 1z"/>
  </symbol>
  <symbol id="icon-ellipsis" viewBox="0 0 24 24">
    <path d="M5 12h.01"/>
    <path d="M12 12h.01"/>
    <path d="M19 12h.01"/>
  </symbol>
  <symbol id="icon-external" viewBox="0 0 24 24">
    <path d="M14 4h6v6"/>
    <path d="M10 14L20 4"/>
    <path d="M20 14v5a1 1 0 0 1-1 1H5a1 1 0 0 1-1-1V5a1 1 0 0 1 1-1h5"/>
  </symbol>
  <symbol id="icon-trash" viewBox="0 0 24 24">
    <path d="M4 7h16"/>
    <path d="M10 11v6"/>
    <path d="M14 11v6"/>
    <path d="M6 7l1 14h10l1-14"/>
    <path d="M9 7V4h6v3"/>
  </symbol>
</svg>
