<?xml version="1.0" encoding="UTF-8" standalone="no"?>
<svg
   width="360"
   height="72"
   viewBox="0 0 360 72"
   role="img"
   aria-label="NetSpecter"
   version="1.1"
   id="svg8"
   xmlns="http://www.w3.org/2000/svg"
   xmlns:svg="http://www.w3.org/2000/svg">
  <defs
     id="defs12" />
  <title
     id="title2">NetSpecter wordmark</title>
  <g
     aria-label="NetSpecter"
     id="text6"
     style="font-weight:700;font-size:48px;font-family:'DejaVu Sans', sans-serif;letter-spacing:-2.2;fill:#0ea5e9">
    <path
       d="m 8.40625,18.007812 h 10.078125 l 12.726562,24 v -24 h 8.554688 V 53 H 29.6875 L 16.960937,29 V 53 H 8.40625 Z"
       id="path14" />
    <path
       d="m 72.206249,39.804687 v 2.390625 H 52.589062 q 0.304687,2.953125 2.132812,4.429688 1.828125,1.476562 5.109375,1.476562 2.648438,0 5.414063,-0.773437 2.789062,-0.796875 5.71875,-2.390625 v 6.46875 q -2.976563,1.125 -5.953125,1.6875 -2.976563,0.585937 -5.953125,0.585937 -7.125,0 -11.085938,-3.609375 -3.9375,-3.632812 -3.9375,-10.171875 0,-6.421875 3.867188,-10.101562 3.890625,-3.679688 10.6875,-3.679688 6.1875,0 9.890625,3.726563 3.726562,3.726562 3.726562,9.960937 z m -8.625,-2.789062 q 0,-2.390625 -1.40625,-3.84375 -1.382812,-1.476563 -3.632812,-1.476563 -2.4375,0 -3.960938,1.382813 -1.523437,1.359375 -1.898437,3.9375 z"
       id="path16" />
    <path
       d="M 85.521873,19.296875 V 26.75 h 8.648438 v 6 h -8.648438 v 11.132812 q 0,1.828125 0.726563,2.484375 Q 86.974998,47 89.131248,47 h 4.3125 v 6 h -7.195312 q -4.96875,0 -7.054688,-2.0625 -2.0625,-2.085938 -2.0625,-7.054688 V 32.75 h -4.171875 v -6 h 4.171875 v -7.453125 z"
       id="path18" />
    <path
       d="m 121.82969,19.109375 v 7.40625 q -2.88281,-1.289063 -5.625,-1.945313 -2.74219,-0.65625 -5.17969,-0.65625 -3.23437,0 -4.78125,0.890625 -1.54687,0.890625 -1.54687,2.765625 0,1.40625 1.03125,2.203125 1.05468,0.773438 3.79687,1.335938 l 3.84375,0.773437 q 5.83594,1.171875 8.29688,3.5625 2.46093,2.390625 2.46093,6.796875 0,5.789063 -3.44531,8.625 -3.42187,2.8125 -10.47656,2.8125 -3.32813,0 -6.67969,-0.632812 -3.35156,-0.632813 -6.703123,-1.875 v -7.617188 q 3.351563,1.78125 6.468753,2.695313 3.14062,0.890625 6.04687,0.890625 2.95313,0 4.52344,-0.984375 1.57031,-0.984375 1.57031,-2.8125 0,-1.640625 -1.07812,-2.53125 -1.05469,-0.890625 -4.24219,-1.59375 l -3.49219,-0.773438 q -5.25,-1.125 -7.687498,-3.585937 -2.414063,-2.460938 -2.414063,-6.632813 0,-5.226562 3.375,-8.039062 3.375001,-2.8125 9.703121,-2.8125 2.88282,0 5.92969,0.445312 3.04688,0.421875 6.30469,1.289063 z"
       style="fill:#e6f6ff"
       id="path20" />
    <path
       d="m 137.86406,49.203125 v 13.78125 h -8.39063 V 26.75 h 8.39063 v 3.84375 q 1.73437,-2.296875 3.84375,-3.375 2.10937,-1.101563 4.85156,-1.101563 4.85156,0 7.96875,3.867188 3.11719,3.84375 3.11719,9.914062 0,6.070313 -3.11719,9.9375 -3.11719,3.84375 -7.96875,3.84375 -2.74219,0 -4.85156,-1.078125 Q 139.59843,51.5 137.86406,49.203125 Z m 5.57812,-16.992188 q -2.69531,0 -4.14843,1.992188 -1.42969,1.96875 -1.42969,5.695312 0,3.726563 1.42969,5.71875 1.45312,1.96875 4.14843,1.96875 2.69532,0 4.10157,-1.96875 1.42968,-1.96875 1.42968,-5.71875 0,-3.75 -1.42968,-5.71875 -1.40625,-1.96875 -4.10157,-1.96875 z"
       style="fill:#e6f6ff"
       id="path22" />
    <path
       d="m 187.83594,39.804687 v 2.390625 h -19.61719 q 0.30469,2.953125 2.13281,4.429688 1.82813,1.476562 5.10938,1.476562 2.64843,0 5.41406,-0.773437 2.78906,-0.796875 5.71875,-2.390625 v 6.46875 q -2.97656,1.125 -5.95313,1.6875 -2.97656,0.585937 -5.95312,0.585937 -7.125,0 -11.08594,-3.609375 -3.9375,-3.632812 -3.9375,-10.171875 0,-6.421875 3.86719,-10.101562 3.89062,-3.679688 10.6875,-3.679688 6.1875,0 9.89062,3.726563 3.72657,3.726562 3.72657,9.960937 z m -8.625,-2.789062 q 0,-2.390625 -1.40625,-3.84375 -1.38282,-1.476563 -3.63282,-1.476563 -2.4375,0 -3.96093,1.382813 -1.52344,1.359375 -1.89844,3.9375 z"
       style="fill:#e6f6ff"
       id="path24" />
    <path
       d="m 213.19844,27.570312 v 6.84375 q -1.71094,-1.171875 -3.44531,-1.734375 -1.71094,-0.5625 -3.5625,-0.5625 -3.51563,0 -5.48438,2.0625 -1.94531,2.039063 -1.94531,5.71875 0,3.679688 1.94531,5.742188 1.96875,2.039062 5.48438,2.039062 1.96875,0 3.72656,-0.585937 1.78125,-0.585938 3.28125,-1.734375 v 6.867187 q -1.96875,0.726563 -4.00781,1.078125 -2.01563,0.375 -4.05469,0.375 -7.10156,0 -11.10937,-3.632812 -4.00782,-3.65625 -4.00782,-10.148438 0,-6.492187 4.00782,-10.125 4.00781,-3.65625 11.10937,-3.65625 2.0625,0 4.05469,0.375 2.01562,0.351563 4.00781,1.078125 z"
       style="fill:#e6f6ff"
       id="path26" />
    <path
       d="M 227.40469,19.296875 V 26.75 h 8.64844 v 6 h -8.64844 v 11.132812 q 0,1.828125 0.72657,2.484375 Q 228.85782,47 231.01407,47 h 4.3125 v 6 h -7.19531 q -4.96875,0 -7.05469,-2.0625 -2.0625,-2.085938 -2.0625,-7.054688 V 32.75 h -4.17188 v -6 h 4.17188 v -7.453125 z"
       style="fill:#e6f6ff"
       id="path28" />
    <path
       d="m 265.18906,39.804687 v 2.390625 h -19.61719 q 0.30469,2.953125 2.13281,4.429688 1.82813,1.476562 5.10938,1.476562 2.64843,0 5.41406,-0.773437 2.78906,-0.796875 5.71875,-2.390625 v 6.46875 q -2.97656,1.125 -5.95313,1.6875 -2.97656,0.585937 -5.95312,0.585937 -7.125,0 -11.08594,-3.609375 -3.9375,-3.632812 -3.9375,-10.171875 0,-6.421875 3.86719,-10.101562 3.89062,-3.679688 10.6875,-3.679688 6.1875,0 9.89062,3.726563 3.72657,3.726562 3.72657,9.960937 z m -8.625,-2.789062 q 0,-2.390625 -1.40625,-3.84375 -1.38282,-1.476563 -3.63282,-1.476563 -2.4375,0 -3.96093,1.382813 -1.52344,1.359375 -1.89844,3.9375 z"
       style="fill:#e6f6ff"
       id="path30" />
    <path
       d="m 288.84064,33.898437 q -1.10157,-0.515625 -2.20313,-0.75 -1.07812,-0.257812 -2.17969,-0.257812 -3.23437,0 -4.99218,2.085937 -1.73438,2.0625 -1.73438,5.929688 V 53 h -8.39062 V 26.75 h 8.39062 v 4.3125 q 1.61719,-2.578125 3.70313,-3.75 2.10937,-1.195313 5.03906,-1.195313 0.42187,0 0.91406,0.04687 0.49219,0.02344 1.42969,0.140625 z"
       style="fill:#e6f6ff"
       id="path32" />
  </g>
</svg>
